<svg width="4800" height="2700" viewBox="0 0 4800 2700" fill="none" xmlns="http://www.w3.org/2000/svg">
<g clip-path="url(#clip0)">
<rect width="4800" height="2700" fill="white"/>
<path d="M-68.5 648C-68.5 648 364 1416 862.5 1416C1361 1416 1869.05 665.173 2455 648C3040.95 630.827 3427 1603.5 3933.5 1603.5C4440 1603.5 5109.5 534 5109.5 534" stroke="black" stroke-width="10" stroke-linecap="round" stroke-linejoin="round"/>
<path d="M-68.5 648C-68.5 648 357.5 1378 856 1378C1354.5 1378 1867.05 702.173 2453 685C3038.95 667.827 3424.5 1558 3931 1558C4437.5 1558 5109.5 534 5109.5 534" stroke="#171717" stroke-width="10" stroke-linecap="round" stroke-linejoin="round"/>
<path d="M-68.5 648C-68.5 648 353 1334 851.5 1334C1350 1334 1849.05 754.673 2435 737.5C3020.95 720.327 3424.5 1501 3931 1501C4437.5 1501 5109.5 534 5109.5 534" stroke="#2C2C2C" stroke-width="10" stroke-linecap="round" stroke-linejoin="round"/>
<path d="M-68.5 648C-68.5 648 331 1286 829.5 1286C1328 1286 1820.05 803.173 2406 786C2991.95 768.827 3386 1448 3892.5 1448C4399 1448 5109.5 534 5109.5 534" stroke="#3C3C3C" stroke-width="10" stroke-linecap="round" stroke-linejoin="round"/>
<path d="M-68.5 648C-68.5 648 320.5 1232 819 1232C1317.5 1232 1820.05 847.173 2406 830C2991.95 812.827 3386 1397.5 3892.5 1397.5C4399 1397.5 5109.5 534 5109.5 534" stroke="#545454" stroke-width="10" stroke-linecap="round" stroke-linejoin="round"/>
<path d="M-68.5 648C-68.5 648 320.5 1179.5 819 1179.5C1317.5 1179.5 1820.05 891.173 2406 874C2991.95 856.827 3386 1349.5 3892.5 1349.5C4399 1349.5 5109.5 534 5109.5 534" stroke="#545454" stroke-width="10" stroke-linecap="round" stroke-linejoin="round"/>
</g>
<defs>
<clipPath id="clip0">
<rect width="4800" height="2700" fill="white"/>
</clipPath>
</defs>
</svg>
