<svg width="1159" height="127" viewBox="0 0 1159 127" fill="none" xmlns="http://www.w3.org/2000/svg">
<path d="M121.112 3.31883C84.2701 0.655675 6.13428 14.5051 3.11156 51.3188C1.12451 75.5191 26.0417 112.743 49.1116 120.319C82.6116 131.319 128.59 103.839 157.112 84.3186C177.866 70.1143 192.698 76.3816 190.612 51.3188C187.875 18.4471 154.011 5.69704 121.112 3.31883Z" fill="white" stroke="black" stroke-width="5"/>
<path d="M1037.77 3.32193C1074.65 0.632863 1152.86 14.6171 1155.89 51.789C1157.88 76.2247 1132.93 113.811 1109.84 121.46C1076.31 132.567 1030.28 104.82 1001.73 85.1099C980.955 70.7674 966.107 77.0956 968.196 51.789C970.935 18.5974 1004.83 5.72328 1037.77 3.32193Z" fill="white" stroke="black" stroke-width="5"/>
</svg>
