<svg width="691" height="566" viewBox="0 0 691 566" fill="none" xmlns="http://www.w3.org/2000/svg">
<path d="M410.5 53.5L347 110C347 110 323.157 82.8241 288 53.5C264.008 33.4883 210.5 3 190.5 3C112 24 7 190 7 190C7 190 68 164.722 96 179.5C124 194.278 125.5 206 125.5 206C125.5 206 97.4396 204.428 77.5 212.5C57.4066 220.635 41 256 41 256C41 256 32.7426 287.327 41 303.5C47.2834 315.807 77.5 352 77.5 352C77.5 352 87.9734 311.439 106 301.717C118.413 295.022 139.469 299.51 153 301.717C158.743 302.653 158.868 302.47 162.5 303.5C175.5 309 182.406 315.051 192.5 325.5C206.367 339.854 218.5 369.5 218.5 369.5C218.5 369.5 246.519 349.303 260.5 332.5C272.454 318.133 286 292 286 292C286 292 318.553 298.002 336 309C352.586 319.455 371.5 344.5 371.5 344.5L453.5 303.5L492 377L565 361.5L605 409L593.5 511.5C593.5 511.5 615 496.5 629.5 511.5C640.941 523.335 640.16 549.8 639.322 560.441C639.237 561.512 640.735 562.013 641.3 561.099C652.061 543.694 661.531 526.424 667.5 511.5C688.5 459 688.5 445 688.5 390C688.5 333.824 652.5 228 652.5 228L622 182.5L586.5 188.5L547 125.5L492 144.5L410.5 53.5Z" fill="#353535" stroke="black" stroke-width="5"/>
<path d="M593 515C593 515 607.854 500.818 620.5 506.5C637.244 514.024 644.025 541.398 640.843 565H136.5C136.5 565 136 557 141 530C146 503 151.271 481 151.271 481C145.296 451.595 153 416.5 153 416.5L154.405 380.1C155.94 364.103 153 301.717 153 301.717C158.743 302.653 158.868 302.47 162.5 303.5C175.5 309 182.406 315.051 192.5 325.5C206.367 339.854 218.5 369.5 218.5 369.5C218.5 369.5 246.519 349.303 260.5 332.5C272.454 318.133 286 292 286 292C286 292 318.553 298.002 336 309C352.586 319.455 371.5 344.5 371.5 344.5L453.5 303.5L492 377L565 361.5L605 409L593 515Z" fill="white"/>
<path d="M254 497C213 507.5 176.5 497.5 176.5 497.5C176.5 497.5 163.501 497 153 488C152.327 485.718 151.754 483.378 151.271 481C145.296 451.595 153 416.5 153 416.5C153 416.5 174.786 411.651 195 409.749C200.241 409.256 205.377 408.961 210 409C231.097 409.178 246 409 263.5 416.5C268.266 428 269.5 440.5 269.5 440.5L308.5 441C308.5 441 313.484 425.688 317 417C338 409.5 350.327 409.043 372 409.5C390.776 409.896 419.5 417 419.5 417L427.5 447.5C427.5 447.5 427.5 482 419.5 497.5C396.5 504.5 348 504.5 327.5 497.5C318.368 485.693 308.5 441 308.5 441L269.5 440.5C269.5 440.5 266.5 482.5 254 497Z" fill="white"/>
<path d="M153 416.5C153 416.5 174.786 411.651 195 409.749C200.241 409.256 205.377 408.961 210 409C231.097 409.178 246 409 263.5 416.5C268.266 428 269.5 440.5 269.5 440.5M153 416.5L154.405 380.1C155.94 364.103 153 301.717 153 301.717C158.743 302.653 158.868 302.47 162.5 303.5C175.5 309 182.406 315.051 192.5 325.5C206.367 339.854 218.5 369.5 218.5 369.5C218.5 369.5 246.519 349.303 260.5 332.5C272.454 318.133 286 292 286 292C286 292 318.553 298.002 336 309C352.586 319.455 371.5 344.5 371.5 344.5L453.5 303.5L492 377L565 361.5L605 409L593 515C593 515 607.854 500.818 620.5 506.5C637.244 514.024 644.025 541.398 640.843 565M153 416.5C153 416.5 145.296 451.595 151.271 481M269.5 440.5C269.5 440.5 266.5 482.5 254 497C213 507.5 176.5 497.5 176.5 497.5C176.5 497.5 163.501 497 153 488C152.327 485.718 151.754 483.378 151.271 481M269.5 440.5L308.5 441M308.5 441C308.5 441 313.484 425.688 317 417C338 409.5 350.327 409.043 372 409.5C390.776 409.896 419.5 417 419.5 417L427.5 447.5M308.5 441C308.5 441 318.368 485.693 327.5 497.5C348 504.5 396.5 504.5 419.5 497.5C427.5 482 427.5 447.5 427.5 447.5M427.5 447.5L521 421M136.5 565C136.5 565 136 557 141 530C146 503 151.271 481 151.271 481" stroke="black" stroke-width="5"/>
</svg>
