<svg width="1148" height="623" viewBox="0 0 1148 623" fill="none" xmlns="http://www.w3.org/2000/svg">
<g clip-path="url(#clip0)">
<rect width="1148" height="623" fill="white"/>
<path d="M973.5 129.5L961 135.5L1148 251V237L973.5 129.5Z" fill="#ECECEC"/>
<path d="M1009.5 61.5L1135.5 0H0V623H1148V475.5L912 588.5L651.5 427.5V404.5L748.5 357L924 466V468.5H938L953 461.5L954 459L661 279L642 288.5L613.5 271.5V252L819 151.5L1148 352V325L894.5 168L873.5 178L848.5 161.5V141.5L1009.5 65.5V61.5Z" fill="#ECECEC"/>
<path d="M1046 94.5L1042 97L1148 163V156.5L1046 94.5Z" fill="#ECECEC"/>
<path d="M741 241L728 247L1019.5 425L1028 424.5L1034 421.5L741 241Z" fill="#ECECEC"/>
<path d="M814 205.5L810 207L1100.5 388H1109.5L1138.5 405V425L925.5 527.5L752.5 422L725.5 435.5L922.5 556.5L1148 447.5V404.5L826.5 205.5H814Z" fill="#ECECEC"/>
<path d="M1148.22 475.45L912.218 588.5M912.218 588.5L912.218 585.5M912.218 588.5L651.5 427.5M912.218 566L1148.22 452M912.218 566L912.218 585.5M912.218 566L651.5 404.5M912.218 585.5L1148.22 472M912.218 585.5L651.5 425M651.5 427.5L651.5 425M651.5 427.5L748.5 380.5M651.5 404.5L651.5 425M651.5 404.5L748.5 357M651.5 425L748.5 377.5M748.5 377.5L748.5 380.5M748.5 377.5L924 485.75M748.5 380.5L748.5 357M748.5 380.5L924 488.5M748.5 357L924 465.5M924 465.5L888.5 483M924 465.5L924 468.5M888.5 483L752.5 399M888.5 483L888.5 485.75M752.5 399L725.5 412.5M752.5 399L752.5 418.5M752.5 422L725.5 435.5M752.5 422L752.5 418.5M752.5 422L925.5 527.5M725.5 435.5L725.5 432M725.5 435.5L922.5 556.5M725.5 412.5L725.5 432M725.5 412.5L922.5 533.5M752.5 418.5L725.5 432M752.5 418.5L925.5 524M725.5 432L922.5 552.5M922.5 556.5L922.5 552.5M922.5 556.5L1148.22 447.5M922.5 533.5L922.5 552.5M922.5 533.5L1148.22 425M922.5 552.5L1148.22 444.5M925.5 524L925.5 527.5M925.5 524L1138.5 421.5M925.5 524L925.5 515.19M925.5 527.5L1138.5 425M1138.5 425L1138.5 421.5M1138.5 425L1109.07 407.062M1138.5 405L925.5 507.5M1138.5 405L1138.5 407.062M1138.5 405L1109.5 388M925.5 507.5L925.5 510.5M925.5 507.5L895.5 489.865M1138.5 421.5L1138.5 413.25M1138.5 421.5L1109.28 402.5M924 488.5L924 485.75M924 488.5L938 488.5M888.5 488.5L924 471.5M888.5 488.5L888.5 485.75M888.5 488.5L925.5 510.5M924 471.5L924 468.5M924 471.5L924 476M924 471.5L929.5 478M924 471.5L938 471.5M924 468.5L888.5 485.75M924 468.5L938 468.5L953 461.5L954.25 459M888.5 485.75L895.5 489.865M924 485.75L938 485.75M924 485.75L924 476M938 485.75L938 488.5M938 485.75L938 476M938 485.75L995 458.046M938 488.5L999.968 459M925.5 510.5L925.5 512.845M925.5 510.5L1138.5 407.062M895.5 498L925.5 515.19M895.5 498L895.5 495.5M895.5 498L929.5 480.5L929.5 478M925.5 515.19L925.5 512.845M925.5 515.19L1138.5 413.25M925.5 512.845L895.5 495.5M925.5 512.845L1138.5 409.125M895.5 495.5L929.5 478M895.5 489.865L924 476M924 476L938 476M938 476L938 471.5M938 476L1109.28 395M938 471.5L1028 427.681M1138.5 413.25L1138.5 409.125M1138.5 413.25L1109.28 395M1138.5 409.125L1138.5 407.062M1138.5 409.125L1109.5 393M1138.5 407.062L1109.5 390.5M1109.5 388L1109.5 390.5M1109.5 388L1034.5 424.516M1109.5 388L1100.5 388L796.5 199M1109.07 407.062L1109.28 402.5M1109.07 407.062L1077 422.328M1109.28 402.5L1109.28 395M1109.28 402.5L995 458.046M1109.28 395L1109.5 393M1109.5 393L1109.5 390.5M1109.5 390.5L1100.5 390.5L796.5 202.5L796.5 199M648.5 271.5L648.5 269L955.5 456.5L954.25 459M648.5 271.5L954.25 459M648.5 271.5L642 271.5M999.968 459L995 458.046M999.968 459L1025.5 446.845M995 458.046L645 242.5L672.5 230L1025.5 446.845M1025.5 446.845L1077 422.328M1105 407.062L752.5 191.5L725 205.5L1077 422.328M1034.5 424.516L1028 427.681M1034.5 424.516L1034.5 421.508M1028 427.681L1019.5 427.681L715 240.5L715 235L720 231.5L732 231.5L1034.5 418.5L1034.5 421.508M1034.5 421.508L732 235L721 233.5L717 235L717 240.5L1019.5 425L1028 424.516L1034.5 421.508ZM642 271.5L613.5 252M642 271.5L642 275M642 288.5L814 205.5M642 288.5L642 285.5M642 288.5L613.5 271.5M814 205.5L814 202.5M814 205.5L826.5 205.5M814 202.5L811.5 203.706M814 202.5L826.5 202.5M642 285.5L613.5 268.027L613.5 266L629.697 258M642 285.5L811.5 203.706M642 285.5L642 278.5M613.5 271.5L613.5 258M613.5 271.5L802 180.849M613.5 252L819 151.5M613.5 252L613.5 255M819 151.5L819 154.75M819 151.5L1148.22 352.5M819 170L819 164.5M819 170L807.865 170M819 170L802 178.198M819 170L833.5 178.198M819 170L819 174M819 164.5L819 158M819 164.5L807.865 170M819 164.5L1148.22 368.5M819 158L613.5 258M819 158L819 154.75M819 158L1148.22 358.5M613.5 258L613.5 255M613.5 255L819 154.75M819 154.75L1148.22 355M826.5 205.5L826.5 202.5M826.5 205.5L1148.22 405M826.5 186.5L811.5 186.5M826.5 186.5L833.5 186.5M826.5 186.5L826.5 189M826.5 186.5L1148.22 384.5M811.5 186.5L796.5 195.103L796.5 199M811.5 186.5L802 186.5M811.5 186.5L811.5 189M811.5 203.706L811.5 195.103M826.5 202.5L1148.22 400.5M826.5 202.5L826.5 195.103M642 278.5L811.5 195.103M642 278.5L642 275M642 278.5L630 269M811.5 195.103L811.5 191.5M811.5 195.103L826.5 195.103M811.5 191.5L642 275M811.5 191.5L826.5 191.5M811.5 191.5L811.5 189M642 275L630 266M630 269L630 266M630 269L802 186.5M630 266L802 183.5M630 266L629.697 258M807.865 170L630 255L629.697 258M807.865 170L802 172.897M802 186.5L802 183.5M802 172.897L802 178.198M802 172.897L802 175.547L629.697 258M802 183.5L802 180.849M802 183.5L833.5 183.675M802 178.198L629.773 260L629.697 258M802 178.198L802 180.849M802 178.198L833.5 178.198M826.5 191.5L826.5 189M826.5 191.5L826.5 195.103M826.5 191.5L1148.22 390M802 180.849L833.5 180.849M802 180.849L819 174M1148.22 374L833.5 178.198M833.5 180.849L833.5 183.675M833.5 180.849L833.5 178.198M833.5 180.849L819 174M833.5 180.849L1148.22 377M833.5 186.5L833.5 183.675M833.5 186.5L1148.22 380M833.5 183.675L1148.22 378M811.5 189L826.5 189M826.5 189L826.5 195.103M826.5 189L1148.22 387M826.5 195.103L1148.22 393.5M848.5 141.5L873.5 158L873.5 161.5M848.5 141.5L848.5 145.5M848.5 141.5L1009.5 65.5M848.5 161.5L873.5 178.198M848.5 161.5L848.5 158M848.5 161.5L867.5 152.365M873.5 178.198L873.5 174.031M873.5 178.198L894.286 168.113M848.5 145.5L848.5 148.5M848.5 145.5L1007 68.7111M848.5 145.5L850.5 146.78M873.5 161.5L873.5 163.5M873.5 161.5L861 153.5M848.5 148.5L873.5 163.5M848.5 148.5L848.5 151M873.5 163.5L873.5 165.5M873.5 163.5L1031 87.5M873.5 165.5L848.5 151M873.5 165.5L873.5 174.031M873.5 165.5L946.5 130.275M848.5 151L848.5 158M848.5 158L873.5 174.031M873.5 174.031L1046 90.9999M1148 17.5L1024.25 77M1046 94.5L1148 156.5M1046 94.5L1046 90.9999M1046 94.5L1041.04 96.9072M1046 70.9999L1148 133.5M1046 70.9999L1046 90.9999M1046 70.9999L1043.5 72.3636M1046 90.9999L1148 152.5M1035 77L1009.5 61.4999M1035 77L1043.5 72.3636M1035 77L1035 83.5899M1009.5 61.4999L1018 57.3666M1009.5 61.4999L1009.5 65.5M1137 -0.500046L1018 57.3666M1018 57.3666L1043.5 72.3636M1018 57.3666L1018 70.9999M1043.5 72.3636L1043 90L888.5 164.535M886.5 165.5L886.5 162.5M886.5 165.5L876.5 158.587M886.5 165.5L888.5 164.535M886.5 162.5L879 157.5M886.5 162.5L1041.04 87.5M1018 70.9999L1009.5 65.5M1018 70.9999L1024.5 75.0299M867.5 152.365L871 150.682M867.5 152.365L876.5 158.587M871 150.682L891 141.066M871 150.682L880.5 156.802M879 157.5L880.5 156.802M879 157.5L876.5 158.587M900.5 147.5L891 141.066M900.5 147.5L880.5 156.802M900.5 147.5L1148 299.5M900.5 147.5L953 122.057M891 141.066L1017.48 80.2562M891 141.066L876.5 132.5L904.5 119.5L1148 269M1031 87.5L1031 89.5L1027.5 91.1888M1031 87.5L1031 82.5M1031 79.0599L1043.1 86.5L1041.04 87.5M1031 79.0599L1031 81M1031 79.0599L1024.5 75.0299M1041.04 87.5L1035 83.5899M1031 81L1024.25 77M1031 81L1035 83.5899M1031 81L1031 82.5M1024.25 77L1009.5 67.5M1024.25 77L1019.5 79.283M1009.5 67.5L1009.5 65.5M1009.5 67.5L1007 68.7111M1007 68.7111L1014 73.0985M1007 68.7111L1007 71.3556M1029 82.5L1031 82.5M1029 82.5L1027.25 84M1029 82.5L1019.5 76.5457M1025.5 85.5L1025.5 86.9209M1025.5 85.5L1017.48 80.2562M1025.5 85.5L1027.25 84M1025.5 92.1539L1027.5 91.1888M1025.5 92.1539L1025.5 86.9209M1025.5 92.1539L949.5 128.827M1027.5 91.1888L1038.61 98.0859M1148 166L1038.61 98.0859M1038.61 98.0859L1041.04 96.9072M1038.61 98.0859L896 167.281M1041.04 96.9072L1148 163M888.5 164.535L894.286 168.113M1148 325L894.286 168.113M894.286 168.113L896 167.281M896 167.281L1148 322.5M1025.5 86.9209L953 122.057M1017.48 80.2562L1019.5 79.283M1017.48 80.2562L1007 74M1019.5 79.283L1027.25 84M1024.5 75.0299L1148 14.4999M1007 74L1007 71.3556M1007 74L853.188 148.5M1019.5 76.5457L861 153.5M1019.5 76.5457L1016.5 74.6654M861 153.5L858.5 151.9M858.5 151.9L1016.5 74.6654M858.5 151.9L856.597 150.682M1016.5 74.6654L1014 73.0985M1014 73.0985L856.597 150.682M856.597 150.682L853.188 148.5M850.5 146.78L1007 71.3556M850.5 146.78L853.188 148.5M946.5 130.275L946.5 126M946.5 130.275L1148 253.5M946.5 130.275L949.5 128.827M953 119L946.5 123.5L946.5 126M953 119L953 122.057M953 119L961.5 119M953 122.057L946.5 126M953 122.057L961.5 122.057M961.5 122.057L961.5 119M961.5 122.057L1148 237M961.5 119L1148 234M949.5 128.827L1148 251M1148 181.5L984.5 81L956.5 94.5L1148 212.5" stroke="black"/>
</g>
<defs>
<clipPath id="clip0">
<rect width="1148" height="623" fill="white"/>
</clipPath>
</defs>
</svg>
