<svg width="647" height="122" viewBox="0 0 647 122" fill="none" xmlns="http://www.w3.org/2000/svg">
<rect width="647" height="122" fill="white"/>
<path d="M36.5 27C38.9 25.8667 41 25.1667 42.8 24.9C44.6667 24.5667 46.4667 24.4 48.2 24.4C50 24.4 51.8 24.5667 53.6 24.9C55.4 25.1667 57.3667 25.8 59.5 26.8C61.7 27.7333 63.6667 28.9667 65.4 30.5C67.1333 31.9667 68.6667 34.0333 70 36.7C71.3333 39.3 72.1667 42.3333 72.5 45.8C72.5 47.2667 71.8333 48 70.5 48H69.6C68.4 48 67.7333 47.4 67.6 46.2C67.2667 43.4 66.5667 40.9333 65.5 38.8C64.4333 36.6667 63.2 35.0333 61.8 33.9C60.4 32.7667 58.8 31.8333 57 31.1C54.3333 29.9667 51.8333 29.4 49.5 29.4C47.2333 29.4 45.3333 29.5333 43.8 29.8C42.3333 30.0667 40.6667 30.6333 38.8 31.5C36.9333 32.3667 35.3 33.5333 33.9 35C32.5 36.4 31.3 38.4 30.3 41C29.3667 43.6 28.9 46.6 28.9 50V69.6C28.9 73 29.4 76 30.4 78.6C31.4 81.2 32.6 83.2333 34 84.7C35.4 86.1 37.0333 87.2333 38.9 88.1C40.8333 88.9667 42.5333 89.5333 44 89.8C45.4667 90.0667 46.9333 90.2 48.4 90.2C49.8667 90.2 51.3333 90.1 52.8 89.9C54.2667 89.6333 55.9333 89.1 57.8 88.3C59.6667 87.4333 61.3 86.3333 62.7 85C64.1 83.6 65.2667 81.6667 66.2 79.2C67.2 76.7333 67.7 73.8667 67.7 70.6V64.8H51.2C49.8667 64.8 49.2 64.1333 49.2 62.8V61.9C49.2 61.3667 49.3667 60.9 49.7 60.5C50.1 60.1 50.6 59.9 51.2 59.9H68.6C71.2667 59.9 72.6 61.3333 72.6 64.2V70.7C72.6 74.7667 71.9667 78.3667 70.7 81.5C69.5 84.5667 68.0333 86.9333 66.3 88.6C64.5667 90.2667 62.5333 91.6 60.2 92.6C56.4 94.2667 52.4667 95.1 48.4 95.1C44.1333 95.1 40.4667 94.3667 37.4 92.9C34.4 91.4333 32 89.8333 30.2 88.1C28.4667 86.3667 27 83.9333 25.8 80.8C24.6 77.6 24 73.9667 24 69.9V49.6C24 45.4 24.6 41.7 25.8 38.5C27.0667 35.3 28.5667 32.8667 30.3 31.2C32.1 29.4667 34.1667 28.0667 36.5 27ZM90.1055 61.3C90.1055 56.0333 91.7055 51.9667 94.9055 49.1C98.1055 46.2333 102.272 44.8 107.405 44.8C112.539 44.8 116.672 46.2667 119.805 49.2C122.939 52.0667 124.505 56.1 124.505 61.3V67.3C124.505 70.1667 123.139 71.6 120.405 71.6H98.8055C98.2055 71.6 97.7055 71.4 97.3055 71C96.9721 70.6 96.8055 70.1333 96.8055 69.6V68.8C96.8055 68.2667 96.9721 67.8 97.3055 67.4C97.7055 67 98.2055 66.8 98.8055 66.8H119.805V61.4C119.805 57.6 118.639 54.7 116.305 52.7C113.972 50.6333 111.005 49.6 107.405 49.6C103.805 49.6 100.805 50.6333 98.4055 52.7C96.0721 54.7 94.9055 57.6 94.9055 61.4V78.6C94.9055 82.4 96.0721 85.3333 98.4055 87.4C100.805 89.4 103.772 90.4 107.305 90.4C110.905 90.4 113.872 89.4333 116.205 87.5C118.605 85.5 119.805 82.6667 119.805 79C119.805 78.4667 119.972 78 120.305 77.6C120.705 77.2 121.172 77 121.705 77H122.505C123.105 77 123.572 77.2 123.905 77.6C124.305 78 124.505 78.4667 124.505 79C124.439 84.1333 122.839 88.1333 119.705 91C116.572 93.8 112.472 95.2 107.405 95.2C102.339 95.2 98.1721 93.7667 94.9055 90.9C91.7055 87.9667 90.1055 83.9 90.1055 78.7V61.3ZM144.129 61.3C144.129 56.0333 145.729 51.9667 148.929 49.1C152.129 46.2333 156.296 44.8 161.429 44.8C166.562 44.8 170.696 46.2667 173.829 49.2C176.962 52.0667 178.529 56.1 178.529 61.3V78.7C178.529 83.9 176.962 87.9667 173.829 90.9C170.696 93.7667 166.562 95.2 161.429 95.2C156.362 95.2 152.196 93.7667 148.929 90.9C145.729 87.9667 144.129 83.9 144.129 78.7V61.3ZM173.829 61.3C173.829 57.5 172.662 54.6 170.329 52.6C167.996 50.5333 165.029 49.5 161.429 49.5C157.829 49.5 154.829 50.5333 152.429 52.6C150.029 54.6 148.829 57.5 148.829 61.3V78.7C148.829 82.5 150.029 85.4333 152.429 87.5C154.829 89.5 157.829 90.5 161.429 90.5C165.029 90.5 167.996 89.5 170.329 87.5C172.662 85.4333 173.829 82.5 173.829 78.7V61.3ZM208.32 45H218.92C219.453 45 219.886 45.2 220.22 45.6C220.62 46 220.82 46.4667 220.82 47V47.4C220.82 47.9333 220.62 48.4 220.22 48.8C219.886 49.2 219.453 49.4 218.92 49.4H208.32L208.22 93.1C208.22 94.3667 207.586 95 206.32 95H205.52C204.186 95 203.52 94.3667 203.52 93.1L203.62 37.3C203.553 32.3667 204.82 28.5667 207.42 25.9C210.086 23.1667 213.72 21.8 218.32 21.8C221.32 21.8 222.82 22.4667 222.82 23.8V24.6C222.82 25.0667 222.62 25.5 222.22 25.9C221.886 26.3 221.453 26.5 220.92 26.5H218.42C215.286 26.5 212.82 27.4333 211.02 29.3C209.22 31.1667 208.32 33.8667 208.32 37.4V45ZM197.12 45H199.52C200.12 45 200.586 45.2 200.92 45.6C201.32 46 201.52 46.4667 201.52 47V47.4C201.52 47.9333 201.32 48.4 200.92 48.8C200.586 49.2 200.12 49.4 199.52 49.4H197.12C196.52 49.4 196.02 49.2 195.62 48.8C195.286 48.4 195.12 47.9333 195.12 47.4V47C195.12 46.4667 195.286 46 195.62 45.6C196.02 45.2 196.52 45 197.12 45ZM246.913 45H257.513C258.047 45 258.48 45.2 258.813 45.6C259.213 46 259.413 46.4667 259.413 47V47.4C259.413 47.9333 259.213 48.4 258.813 48.8C258.48 49.2 258.047 49.4 257.513 49.4H246.913L246.813 93.1C246.813 94.3667 246.18 95 244.913 95H244.113C242.78 95 242.113 94.3667 242.113 93.1L242.213 37.3C242.147 32.3667 243.413 28.5667 246.013 25.9C248.68 23.1667 252.313 21.8 256.913 21.8C259.913 21.8 261.413 22.4667 261.413 23.8V24.6C261.413 25.0667 261.213 25.5 260.813 25.9C260.48 26.3 260.047 26.5 259.513 26.5H257.013C253.88 26.5 251.413 27.4333 249.613 29.3C247.813 31.1667 246.913 33.8667 246.913 37.4V45ZM235.713 45H238.113C238.713 45 239.18 45.2 239.513 45.6C239.913 46 240.113 46.4667 240.113 47V47.4C240.113 47.9333 239.913 48.4 239.513 48.8C239.18 49.2 238.713 49.4 238.113 49.4H235.713C235.113 49.4 234.613 49.2 234.213 48.8C233.88 48.4 233.713 47.9333 233.713 47.4V47C233.713 46.4667 233.88 46 234.213 45.6C234.613 45.2 235.113 45 235.713 45ZM293.707 44.8C294.974 44.8 295.607 45.4667 295.607 46.8V47.5C295.607 48.0333 295.407 48.5 295.007 48.9C294.674 49.3 294.24 49.5 293.707 49.5C289.907 49.5 286.874 50.4667 284.607 52.4C282.34 54.3333 281.207 57.3 281.207 61.3V93C281.207 93.6 281.007 94.1 280.607 94.5C280.207 94.8333 279.74 95 279.207 95H278.507C277.974 95 277.507 94.8333 277.107 94.5C276.707 94.1 276.507 93.6 276.507 93V61.3C276.507 55.8333 278.04 51.7333 281.107 49C284.174 46.2 288.374 44.8 293.707 44.8ZM310.809 61.3C310.809 56.0333 312.409 51.9667 315.609 49.1C318.809 46.2333 322.975 44.8 328.109 44.8C333.242 44.8 337.375 46.2667 340.509 49.2C343.642 52.0667 345.209 56.1 345.209 61.3V67.3C345.209 70.1667 343.842 71.6 341.109 71.6H319.509C318.909 71.6 318.409 71.4 318.009 71C317.675 70.6 317.509 70.1333 317.509 69.6V68.8C317.509 68.2667 317.675 67.8 318.009 67.4C318.409 67 318.909 66.8 319.509 66.8H340.509V61.4C340.509 57.6 339.342 54.7 337.009 52.7C334.675 50.6333 331.709 49.6 328.109 49.6C324.509 49.6 321.509 50.6333 319.109 52.7C316.775 54.7 315.609 57.6 315.609 61.4V78.6C315.609 82.4 316.775 85.3333 319.109 87.4C321.509 89.4 324.475 90.4 328.009 90.4C331.609 90.4 334.575 89.4333 336.909 87.5C339.309 85.5 340.509 82.6667 340.509 79C340.509 78.4667 340.675 78 341.009 77.6C341.409 77.2 341.875 77 342.409 77H343.209C343.809 77 344.275 77.2 344.609 77.6C345.009 78 345.209 78.4667 345.209 79C345.142 84.1333 343.542 88.1333 340.409 91C337.275 93.8 333.175 95.2 328.109 95.2C323.042 95.2 318.875 93.7667 315.609 90.9C312.409 87.9667 310.809 83.9 310.809 78.7V61.3ZM396.132 45H397.032C398.299 45 398.932 45.6667 398.932 47V100.4C398.932 106.133 397.399 110.5 394.332 113.5C391.332 116.5 387.232 118 382.032 118C376.832 118 372.799 116.6 369.932 113.8C367.132 111.067 365.665 107.133 365.532 102C365.532 100.733 366.165 100.1 367.432 100.1H368.332C369.599 100.1 370.232 100.733 370.232 102C370.365 105.667 371.532 108.467 373.732 110.4C375.999 112.333 378.865 113.3 382.332 113.3C390.265 113.3 394.232 109.033 394.232 100.5V47C394.232 45.6667 394.865 45 396.132 45ZM366.532 44.8H367.332C368.665 44.8 369.332 45.4667 369.332 46.8V78.4C369.332 82.3333 370.299 85.3 372.232 87.3C374.232 89.3 377.032 90.3 380.632 90.3C384.232 90.3 387.332 88.8667 389.932 86C390.532 85.2667 391.165 84.9 391.832 84.9C393.099 84.9 393.732 85.6333 393.732 87.1C393.732 87.7 393.565 88.2333 393.232 88.7C391.899 90.5667 390.032 92.1 387.632 93.3C385.232 94.4333 382.699 95 380.032 95C375.432 95 371.699 93.5667 368.832 90.7C366.032 87.7667 364.632 83.7 364.632 78.5V46.8C364.632 45.4667 365.265 44.8 366.532 44.8ZM475.713 25H476.713C477.247 25 477.713 25.2 478.113 25.6C478.513 26 478.713 26.4667 478.713 27V90.1H512.113C513.38 90.1 514.013 90.7667 514.013 92.1V93C514.013 93.5333 513.813 94 513.413 94.4C513.08 94.8 512.647 95 512.113 95H477.813C475.08 95 473.713 93.5667 473.713 90.7V27C473.713 26.4667 473.913 26 474.313 25.6C474.713 25.2 475.18 25 475.713 25ZM530.516 61.3C530.516 56.0333 532.116 51.9667 535.316 49.1C538.516 46.2333 542.682 44.8 547.816 44.8C552.949 44.8 557.082 46.2667 560.216 49.2C563.349 52.0667 564.916 56.1 564.916 61.3V67.3C564.916 70.1667 563.549 71.6 560.816 71.6H539.216C538.616 71.6 538.116 71.4 537.716 71C537.382 70.6 537.216 70.1333 537.216 69.6V68.8C537.216 68.2667 537.382 67.8 537.716 67.4C538.116 67 538.616 66.8 539.216 66.8H560.216V61.4C560.216 57.6 559.049 54.7 556.716 52.7C554.382 50.6333 551.416 49.6 547.816 49.6C544.216 49.6 541.216 50.6333 538.816 52.7C536.482 54.7 535.316 57.6 535.316 61.4V78.6C535.316 82.4 536.482 85.3333 538.816 87.4C541.216 89.4 544.182 90.4 547.716 90.4C551.316 90.4 554.282 89.4333 556.616 87.5C559.016 85.5 560.216 82.6667 560.216 79C560.216 78.4667 560.382 78 560.716 77.6C561.116 77.2 561.582 77 562.116 77H562.916C563.516 77 563.982 77.2 564.316 77.6C564.716 78 564.916 78.4667 564.916 79C564.849 84.1333 563.249 88.1333 560.116 91C556.982 93.8 552.882 95.2 547.816 95.2C542.749 95.2 538.582 93.7667 535.316 90.9C532.116 87.9667 530.516 83.9 530.516 78.7V61.3ZM584.539 61.3C584.539 56.0333 586.139 51.9667 589.339 49.1C592.539 46.2333 596.706 44.8 601.839 44.8C606.972 44.8 611.106 46.2667 614.239 49.2C617.372 52.0667 618.939 56.1 618.939 61.3V67.3C618.939 70.1667 617.572 71.6 614.839 71.6H593.239C592.639 71.6 592.139 71.4 591.739 71C591.406 70.6 591.239 70.1333 591.239 69.6V68.8C591.239 68.2667 591.406 67.8 591.739 67.4C592.139 67 592.639 66.8 593.239 66.8H614.239V61.4C614.239 57.6 613.072 54.7 610.739 52.7C608.406 50.6333 605.439 49.6 601.839 49.6C598.239 49.6 595.239 50.6333 592.839 52.7C590.506 54.7 589.339 57.6 589.339 61.4V78.6C589.339 82.4 590.506 85.3333 592.839 87.4C595.239 89.4 598.206 90.4 601.739 90.4C605.339 90.4 608.306 89.4333 610.639 87.5C613.039 85.5 614.239 82.6667 614.239 79C614.239 78.4667 614.406 78 614.739 77.6C615.139 77.2 615.606 77 616.139 77H616.939C617.539 77 618.006 77.2 618.339 77.6C618.739 78 618.939 78.4667 618.939 79C618.872 84.1333 617.272 88.1333 614.139 91C611.006 93.8 606.906 95.2 601.839 95.2C596.772 95.2 592.606 93.7667 589.339 90.9C586.139 87.9667 584.539 83.9 584.539 78.7V61.3Z" fill="black"/>
</svg>
