<svg width="1468" height="2058" viewBox="0 0 1468 2058" fill="none" xmlns="http://www.w3.org/2000/svg">
<g id="Me">
<path id="Hair" d="M662.5 53.5L599 110C599 110 575.157 82.8241 540 53.5C516.008 33.4883 462.5 3 442.5 3C364 24 259 190 259 190C259 190 320 164.722 348 179.5C376 194.278 377.5 206 377.5 206C377.5 206 349.44 204.428 329.5 212.5C309.407 220.635 293 256 293 256C293 256 284.743 287.327 293 303.5C299.283 315.807 329.5 352 329.5 352C329.5 352 339.973 311.439 358 301.717C370.413 295.022 391.469 299.51 405 301.717C410.743 302.653 410.868 302.47 414.5 303.5C427.5 309 434.406 315.051 444.5 325.5C458.367 339.854 470.5 369.5 470.5 369.5C470.5 369.5 498.519 349.303 512.5 332.5C524.454 318.133 538 292 538 292C538 292 570.553 298.002 588 309C604.586 319.455 623.5 344.5 623.5 344.5L705.5 303.5L744 377L817 361.5L857 409L845.5 511.5V595.5L821 662C821 662 896.418 569.205 919.5 511.5C940.5 459 940.5 445 940.5 390C940.5 333.824 904.5 228 904.5 228L874 182.5L838.5 188.5L799 125.5L744 144.5L662.5 53.5Z" fill="#353535" stroke="black" stroke-width="5"/>
<g id="Face">
<path d="M547 767C364 739 354.5 622 354.5 622L374 508C374 508 368.501 508 358 499C349 468.5 358 427.5 358 427.5C358 427.5 379.786 422.651 400 420.749C400 420.749 404.871 396.097 406.405 380.1C407.94 364.103 405 301.717 405 301.717C410.743 302.653 410.868 302.47 414.5 303.5C427.5 309 434.406 315.051 444.5 325.5C458.367 339.854 470.5 369.5 470.5 369.5C470.5 369.5 498.519 349.303 512.5 332.5C524.454 318.133 538 292 538 292C538 292 570.553 298.002 588 309C604.586 319.455 623.5 344.5 623.5 344.5L705.5 303.5L744 377L817 361.5L857 409L845 515C845 515 859.854 500.818 872.5 506.5C900.641 519.146 900.641 587.854 872.5 600.5C859.854 606.182 845 594 845 594C845 594 833.688 639.039 814.5 675.5C795.312 711.961 757.5 767 757.5 767L745.5 850C745.5 850 728.5 861 691 862.5C653.5 864 639 850 639 850L654.5 767C654.5 767 616 776.3 547 767Z" fill="white"/>
<path d="M374 508L354.5 622C354.5 622 364 739 547 767C616 776.3 654.5 767 654.5 767L639 850C639 850 653.5 864 691 862.5C728.5 861 745.5 850 745.5 850L757.5 767C757.5 767 795.312 711.961 814.5 675.5C833.688 639.039 845 594 845 594C845 594 859.854 606.182 872.5 600.5C900.641 587.854 900.641 519.146 872.5 506.5C859.854 500.818 845 515 845 515L857 409L817 361.5L744 377L705.5 303.5L623.5 344.5C623.5 344.5 604.586 319.455 588 309C570.553 298.002 538 292 538 292C538 292 524.454 318.133 512.5 332.5C498.519 349.303 470.5 369.5 470.5 369.5C470.5 369.5 458.367 339.854 444.5 325.5C434.406 315.051 427.5 309 414.5 303.5C410.868 302.47 410.743 302.653 405 301.717C405 301.717 407.94 364.103 406.405 380.1C404.871 396.097 400 420.749 400 420.749M374 508C374 508 418 518.5 459 508C471.5 493.5 474.5 451.5 474.5 451.5M374 508C374 508 368.501 508 358 499C349 468.5 358 427.5 358 427.5C358 427.5 379.786 422.651 400 420.749M474.5 451.5C474.5 451.5 473.266 439 468.5 427.5C451 420 436.097 420.178 415 420C410.377 419.961 405.241 420.256 400 420.749M474.5 451.5H506.5M506.5 451.5C506.5 451.5 511.484 436.188 515 427.5C536 420 548.327 419.543 570 420C588.776 420.396 617.5 427.5 617.5 427.5L625.5 458M506.5 451.5C506.5 451.5 516.368 496.193 525.5 508C546 515 594.5 515 617.5 508C625.5 492.5 625.5 458 625.5 458M625.5 458L766.5 439" stroke="black" stroke-width="5"/>
</g>
<g id="Arms">
<path d="M547 1052C547 1052 521.738 1029.84 507 1026.5C497.814 1024.42 480.833 1028.42 469 1031.85C469 1031.85 469 1118.5 473 1171C479.941 1217.74 511.72 1282.46 516.419 1291.85C524.483 1258.36 531.738 1226.23 535 1206.5C548.223 1126.52 547 1052 547 1052Z" fill="white"/>
<path d="M893 1036C874 1036 855.5 1052 855.5 1052L877.085 1267L921 1169.5C925.5 1114 921 1038.5 921 1038.5C913.581 1037.18 903.882 1036 893 1036Z" fill="white"/>
<path d="M517 1293C517 1293 480.5 1221.5 473 1171C469 1118.5 469 1031.85 469 1031.85C480.833 1028.42 497.814 1024.42 507 1026.5C521.738 1029.84 547 1052 547 1052C547 1052 548.223 1126.52 535 1206.5C531.733 1226.26 524.461 1258.46 516.382 1292M855.5 1052C855.5 1052 874 1036 893 1036C903.882 1036 913.581 1037.18 921 1038.5C921 1038.5 925.5 1114 921 1169.5L877.085 1267L855.5 1052Z" stroke="black" stroke-width="5"/>
</g>
<g id="Pencil">
<path id="Pencil Base" d="M101.25 1373C101.25 1373 96.7499 1386.5 104 1412.5C111.25 1438.5 117.5 1441 117.5 1441C117.5 1441 129.731 1451.31 142.5 1453C157.404 1454.98 188 1449 188 1449L104 1471C104 1471 86.7892 1468.21 73.5 1457C64.2596 1449.21 58.5578 1435.27 55 1424C51.4301 1412.69 51.8315 1394.59 55 1383C59.6827 1365.86 69 1357 69 1357L145 1326C145 1326 126.359 1335.76 117.5 1345.5C109.106 1354.73 101.25 1373 101.25 1373Z" fill="#C1C1C1" stroke="black" stroke-width="5"/>
<path id="Eraser" d="M73.5003 1457C64.2598 1449.21 58.5581 1435.27 55.0003 1424C51.4304 1412.69 51.8318 1394.59 55.0003 1383C59.683 1365.86 69.0003 1357 69.0003 1357L20.0002 1379C20.0002 1379 10.6829 1387.86 6.00013 1405C2.83169 1416.59 1.93013 1434.69 5.49999 1446L5.58488 1446.27C9.09311 1457.39 10.5716 1462.07 19.5 1471C28.5001 1480 51 1484.5 51 1484.5L104 1471C104 1471 86.7895 1468.21 73.5003 1457Z" fill="#ED9B9B" stroke="black" stroke-width="5"/>
<g id="Pencil Base_2">
<path d="M145 1326C145 1326 1288.5 918 1300.5 907.5C1292.11 928.5 1278 969.001 1278 969.001L1314 990L1300.5 1034C1300.5 1034 1335.5 1047 1359 1050.5C1278 1078.5 188 1449 188 1449C188 1449 157.404 1454.98 142.5 1453C129.731 1451.31 117.5 1441 117.5 1441C117.5 1441 111.25 1438.5 104 1412.5C96.75 1386.5 101.25 1373 101.25 1373C101.25 1373 109.106 1354.73 117.5 1345.5C126.359 1335.76 145 1326 145 1326Z" fill="#F0C631"/>
<path d="M1278 969.001C1278 969.001 1292.11 928.5 1300.5 907.5C1288.5 918 145 1326 145 1326C145 1326 126.359 1335.76 117.5 1345.5C109.106 1354.73 101.25 1373 101.25 1373M1278 969.001L1314 990L1300.5 1034M1278 969.001L101.25 1373M1300.5 1034C1300.5 1034 1335.5 1047 1359 1050.5C1278 1078.5 188 1449 188 1449C188 1449 157.404 1454.98 142.5 1453C129.731 1451.31 117.5 1441 117.5 1441M1300.5 1034L117.5 1441M117.5 1441C117.5 1441 111.25 1438.5 104 1412.5C96.75 1386.5 101.25 1373 101.25 1373" stroke="black" stroke-width="5"/>
</g>
<path id="Sharpen" d="M1383.88 952.5C1389.83 968.12 1413.13 983.75 1413.13 983.75L1359 1050.5C1335.5 1047 1300.5 1034 1300.5 1034L1314 990L1278 969.001C1278 969.001 1292.11 928.5 1300.5 907.5L1383.88 912.25C1383.88 912.25 1378.28 937.811 1383.88 952.5Z" fill="#F5ECC9" stroke="black" stroke-width="5"/>
<path id="Lead" d="M1413.13 983.75L1463 920L1383.88 912.25C1383.88 912.25 1378.28 937.811 1383.88 952.5C1389.83 968.12 1413.13 983.75 1413.13 983.75Z" fill="#393939" stroke="black" stroke-width="5"/>
</g>
<g id="Torso">
<path d="M855.5 1052L890 1411.5C890 1411.5 780.939 1424.4 745.5 1421.5C704.507 1418.15 625.048 1402.1 584 1399.5C540.317 1396.73 483.5 1421.5 483.5 1421.5C483.5 1421.5 501.34 1354.44 516.382 1292C524.461 1258.46 531.733 1226.26 535 1206.5C548.223 1126.52 547 1052 547 1052C547 1052 521.738 1029.84 507 1026.5C491.955 1023.09 456 1036 456 1036C456 1036 471 961 507 911.5C518.961 901.403 542.993 885.536 569.5 874C603.174 859.345 639 850 639 850C639 850 653.5 864 691 862.5C728.5 861 745.5 850 745.5 850C745.5 850 850 868 884.5 892.5C890.614 905.654 905.028 925.584 913.5 950.5C927.893 992.829 936 1042 936 1042C936 1042 917.5 1036 893 1036C874 1036 855.5 1052 855.5 1052Z" fill="#8F0D0D"/>
<path d="M547 981.5V1052M843 967L855.5 1052M855.5 1052L890 1411.5C890 1411.5 780.939 1424.4 745.5 1421.5C704.507 1418.15 625.048 1402.1 584 1399.5C540.317 1396.73 483.5 1421.5 483.5 1421.5C483.5 1421.5 501.34 1354.44 516.382 1292C524.461 1258.46 531.733 1226.26 535 1206.5C548.223 1126.52 547 1052 547 1052M855.5 1052C855.5 1052 874 1036 893 1036C917.5 1036 936 1042 936 1042C936 1042 927.893 992.829 913.5 950.5C905.028 925.584 890.614 905.654 884.5 892.5C850 868 745.5 850 745.5 850C745.5 850 728.5 861 691 862.5C653.5 864 639 850 639 850C639 850 603.174 859.345 569.5 874C542.993 885.536 518.961 901.403 507 911.5C471 961 456 1036 456 1036C456 1036 491.955 1023.09 507 1026.5C521.738 1029.84 547 1052 547 1052" stroke="black" stroke-width="5"/>
</g>
<path id="Pants" d="M884 1948C884 1948 887.074 1807.56 884 1697.5C881.743 1616.71 861.239 1474.36 866.248 1414.13C832.098 1417.73 770.492 1423.54 745.5 1421.5C704.507 1418.15 625.048 1402.1 584 1399.5C561.772 1398.09 533.164 1402.78 510.426 1407.72C506.482 1475.51 499.542 1611.62 501 1708.5C502.409 1802.14 513 1948 513 1948C513 1948 536.676 1939.75 559 1940C580.178 1940.24 622 1948 622 1948C622 1948 621.092 1805.82 631 1715.5C640.802 1626.14 680 1489 680 1489L759 1715.5L781 1948C781 1948 802.388 1940 822.5 1940C842.612 1940 884 1948 884 1948Z" fill="#0D418F" stroke="black" stroke-width="5"/>
<g id="Shoes">
<path d="M822.5 1940C842.612 1940 884 1948 884 1948C884 1948 897 1969.75 918 1977C939 1984.25 957.5 1998.5 959.5 2027C953.835 2040.86 927 2044.5 927 2044.5L794 2020.5C794 2020.5 771.883 2007.5 774.5 1992C776.101 1982.52 781 1948 781 1948C781 1948 802.388 1940 822.5 1940Z" fill="#616161"/>
<path d="M559 1940C580.178 1940.24 622 1948 622 1948C622 1948 633.995 1974.85 630.5 1992C627.276 2007.82 619.959 2015.63 608.5 2027C589.838 2045.52 572.449 2048.72 546.617 2053.48L546.5 2053.5C525.184 2057.43 491 2053.5 491 2053.5C491 2053.5 465.295 2037.3 462.5 2020.5C459.404 2001.89 472.306 1992.18 483.5 1977C493.087 1964 513 1948 513 1948C513 1948 536.676 1939.75 559 1940Z" fill="#616161"/>
<path d="M822.5 1940C842.612 1940 884 1948 884 1948C884 1948 897 1969.75 918 1977C939 1984.25 957.5 1998.5 959.5 2027C953.835 2040.86 927 2044.5 927 2044.5L794 2020.5C794 2020.5 771.883 2007.5 774.5 1992C776.101 1982.52 781 1948 781 1948C781 1948 802.388 1940 822.5 1940Z" stroke="black" stroke-width="5"/>
<path d="M559 1940C580.178 1940.24 622 1948 622 1948C622 1948 633.995 1974.85 630.5 1992C627.276 2007.82 619.959 2015.63 608.5 2027C589.838 2045.52 572.449 2048.72 546.617 2053.48L546.5 2053.5C525.184 2057.43 491 2053.5 491 2053.5C491 2053.5 465.295 2037.3 462.5 2020.5C459.404 2001.89 472.306 1992.18 483.5 1977C493.087 1964 513 1948 513 1948C513 1948 536.676 1939.75 559 1940Z" stroke="black" stroke-width="5"/>
</g>
<path id="Mouth" d="M664.5 689C691.514 661.616 664.5 583 664.5 583C664.5 583 633 599.75 602.5 616.5C572 633.25 529.5 642.5 529.5 642.5C529.5 642.5 552.435 662 565.5 689C578.565 716 643.467 710.321 664.5 689Z" fill="#A2A2A2" stroke="black" stroke-width="5"/>
</g>
</svg>
