<svg width="1148" height="623" viewBox="0 0 1148 623" fill="none" xmlns="http://www.w3.org/2000/svg">
<g clip-path="url(#clip0)">
<rect width="1148" height="623" fill="white"/>
<line x1="11.7678" y1="-13.7678" x2="666.768" y2="641.232" stroke="#F4F4F4" stroke-width="5"/>
<path d="M-267.232 -13.7678L60.2676 313.732M387.768 641.232L317 570.465" stroke="#F4F4F4" stroke-width="5"/>
<line x1="42.7678" y1="-13.7678" x2="697.768" y2="641.232" stroke="#F4F4F4" stroke-width="5"/>
<path d="M-422.232 -13.7678L52.3797 460.844C54.3786 462.843 57.6358 462.789 59.5668 460.724L67.1966 452.568C69.0386 450.598 68.9872 447.523 67.0805 445.616L-13.036 365.5" stroke="#F4F4F4" stroke-width="5"/>
<path d="M-577.232 -13.7678L18.9648 582.429C20.9175 584.382 20.9175 587.547 18.9649 589.5L10.5004 597.964C8.54776 599.917 8.54777 603.083 10.5004 605.036L30 624.535" stroke="#F4F4F4" stroke-width="5"/>
<path d="M73.7676 -13.7678L601 513.464" stroke="#F4F4F4" stroke-width="5"/>
<path d="M263.768 641.232L223.036 600.5" stroke="#F4F4F4" stroke-width="5"/>
<path d="M-546.232 -13.7678L49.9641 582.429C51.9168 584.381 51.9168 587.547 49.9641 589.5L41.5355 597.928C39.5829 599.881 39.5829 603.047 41.5355 605L66.5 629.964" stroke="#F4F4F4" stroke-width="5"/>
<path d="M-50.2324 -13.7678L275.535 312" stroke="#F4F4F4" stroke-width="5"/>
<path d="M104.768 -13.7678L600 481.465M759.768 641.232L647.035 528.5" stroke="#F4F4F4" stroke-width="5"/>
<path d="M-515.232 -13.7678L80.9998 582.464C82.9524 584.417 82.9524 587.583 80.9998 589.536L72.5355 598C70.5829 599.952 70.5829 603.118 72.5355 605.071L94 626.535" stroke="#F4F4F4" stroke-width="5"/>
<line x1="-19.2322" y1="-13.7678" x2="635.768" y2="641.232" stroke="#F4F4F4" stroke-width="5"/>
<path d="M135.768 -13.7678L599.768 450.232" stroke="#F4F4F4" stroke-width="5"/>
<path d="M-484.232 -13.7678L112 582.464C113.953 584.417 113.953 587.583 112 589.536L103.536 598C101.583 599.953 101.583 603.119 103.536 605.071L125.464 627" stroke="#F4F4F4" stroke-width="5"/>
<path d="M631.768 -13.7678L669 23.4645C670.952 25.4171 670.952 28.5829 669 30.5355L660.536 38.9998C658.583 40.9524 658.583 44.1183 660.536 46.0709L771.965 157.5M688.071 42.5354L746 100.465" stroke="#F4F4F4" stroke-width="5"/>
<path d="M476.768 -13.7678L659.964 169.425C661.917 171.377 665.083 171.377 667.036 169.424L704.5 131.96M1131.77 641.232L708.54 218" stroke="#F4F4F4" stroke-width="5"/>
<path d="M477 -43.9977L660.197 139.195C662.15 141.147 665.315 141.147 667.268 139.195L704.732 101.73" stroke="#F4F4F4" stroke-width="5"/>
<line x1="786.768" y1="-13.7678" x2="1441.77" y2="641.232" stroke="#F4F4F4" stroke-width="5"/>
<path d="M1450.77 681.232L943 173.464" stroke="#F4F4F4" stroke-width="5"/>
<line x1="321.768" y1="-13.7678" x2="976.768" y2="641.232" stroke="#F4F4F4" stroke-width="5"/>
<line x1="1096.77" y1="-13.7678" x2="1751.77" y2="641.232" stroke="#F4F4F4" stroke-width="5"/>
<path d="M166.768 -13.7678L599.035 418.5M821.768 641.232L693.535 513" stroke="#F4F4F4" stroke-width="5"/>
<path d="M941.768 -13.7678L1032 76.4645" stroke="#F4F4F4" stroke-width="5"/>
<path d="M662.768 -13.7678L831.464 154.929C833.417 156.882 833.417 160.047 831.464 162L823.036 170.429C821.083 172.381 821.083 175.547 823.036 177.5L1157.5 511.964" stroke="#F4F4F4" stroke-width="5"/>
<path d="M1126.23 511.964L791.768 177.5C789.815 175.547 789.815 172.381 791.768 170.429L800.197 162C802.149 160.047 802.149 156.882 800.197 154.929L689.268 44" stroke="#F4F4F4" stroke-width="5"/>
<path d="M693.5 -13.7678L862.197 154.929C864.149 156.882 864.149 160.047 862.197 162L853.768 170.429C851.815 172.381 851.815 175.547 853.768 177.5L1188.23 511.964" stroke="#F4F4F4" stroke-width="5"/>
<path d="M724.5 -13.7678L893.197 154.929C895.149 156.882 895.149 160.047 893.197 162L884.768 170.429C882.815 172.381 882.815 175.547 884.768 177.5L1219.23 511.964" stroke="#F4F4F4" stroke-width="5"/>
<path d="M755.5 -13.7678L924.197 154.929C926.149 156.882 926.149 160.047 924.197 162L915.768 170.429C913.815 172.381 913.815 175.547 915.768 177.5L1250.23 511.964" stroke="#F4F4F4" stroke-width="5"/>
<line x1="817.768" y1="-13.7678" x2="1472.77" y2="641.232" stroke="#F4F4F4" stroke-width="5"/>
<line x1="352.768" y1="-13.7678" x2="1007.77" y2="641.232" stroke="#F4F4F4" stroke-width="5"/>
<line x1="1127.77" y1="-13.7678" x2="1782.77" y2="641.232" stroke="#F4F4F4" stroke-width="5"/>
<path d="M197.768 -13.7678L663.035 451.5M852.768 641.232L726.035 514.5" stroke="#F4F4F4" stroke-width="5"/>
<path d="M972.768 -13.7678L1057 70.4645C1058.95 72.4171 1058.95 75.5829 1057 77.5355L1048.57 85.9645C1046.62 87.9171 1046.62 91.0829 1048.57 93.0355L1148.5 192.965M1627.77 641.232L1076.04 89.5" stroke="#F4F4F4" stroke-width="5"/>
<path d="M1193.77 641.232L759.071 206.536C757.119 204.583 753.953 204.583 752 206.536L743.536 215C741.583 216.952 741.583 220.118 743.536 222.071L1193.77 672.303" stroke="#F4F4F4" stroke-width="5"/>
<line x1="848.768" y1="-13.7678" x2="1503.77" y2="641.232" stroke="#F4F4F4" stroke-width="5"/>
<line x1="383.768" y1="-13.7678" x2="1038.77" y2="641.232" stroke="#F4F4F4" stroke-width="5"/>
<path d="M228.768 -13.7678L690 447.464C691.952 449.417 691.952 452.583 690 454.536L678 466.535L619.536 525C617.583 526.952 617.583 530.118 619.536 532.071L713.965 626.5M883.768 641.232L712.606 470.071C710.654 468.118 707.488 468.118 705.535 470.071L666.14 509.466C664.188 511.418 664.187 514.583 666.138 516.536L778.5 629" stroke="#F4F4F4" stroke-width="5"/>
<line x1="1003.77" y1="-13.7678" x2="1658.77" y2="641.232" stroke="#F4F4F4" stroke-width="5"/>
<path d="M569.768 -13.7678L696 112.464" stroke="#F4F4F4" stroke-width="5"/>
<line x1="879.768" y1="-13.7678" x2="1534.77" y2="641.232" stroke="#F4F4F4" stroke-width="5"/>
<line x1="414.768" y1="-13.7678" x2="1069.77" y2="641.232" stroke="#F4F4F4" stroke-width="5"/>
<line x1="259.768" y1="-13.7678" x2="914.768" y2="641.232" stroke="#F4F4F4" stroke-width="5"/>
<path d="M1034.77 -13.7678L1114.46 65.9289C1116.42 67.8816 1119.58 67.8816 1121.54 65.9289L1129.96 57.4998C1131.92 55.5472 1135.08 55.5472 1137.04 57.4998L1150.5 70.9645M1689.77 641.232L1133.5 84.9647" stroke="#F4F4F4" stroke-width="5"/>
<path d="M600.768 -13.7678L641.5 26.9645" stroke="#F4F4F4" stroke-width="5"/>
<line x1="910.768" y1="-13.7678" x2="1565.77" y2="641.232" stroke="#F4F4F4" stroke-width="5"/>
<line x1="445.768" y1="-13.7678" x2="1100.77" y2="641.232" stroke="#F4F4F4" stroke-width="5"/>
<path d="M538.768 -13.7678L642.535 90" stroke="#F4F4F4" stroke-width="5"/>
<line x1="290.768" y1="-13.7678" x2="945.768" y2="641.232" stroke="#F4F4F4" stroke-width="5"/>
<path d="M1065.77 -13.7678L1118 38.4645" stroke="#F4F4F4" stroke-width="5"/>
<circle cx="1032" cy="76" r="10" fill="#F4F4F4"/>
<circle cx="1076" cy="89" r="10" fill="#F4F4F4"/>
<circle cx="1118" cy="38" r="10" fill="#F4F4F4"/>
<circle cx="1135" cy="86" r="10" fill="#F4F4F4"/>
<circle cx="601" cy="513" r="10" fill="#F4F4F4"/>
<circle cx="648" cy="529" r="10" fill="#F4F4F4"/>
<circle cx="696" cy="513" r="10" fill="#F4F4F4"/>
<circle cx="725" cy="513" r="10" fill="#F4F4F4"/>
<circle cx="601" cy="482" r="10" fill="#F4F4F4"/>
<circle cx="601" cy="450" r="10" fill="#F4F4F4"/>
<circle cx="661" cy="450" r="10" fill="#F4F4F4"/>
<circle cx="601" cy="417" r="10" fill="#F4F4F4"/>
<rect x="139" y="374" width="147" height="147" fill="#F4F4F4"/>
<path d="M-298.232 -13.7678L27.5 311.965M356.768 641.232L257.535 542L257.535 521" stroke="#F4F4F4" stroke-width="5"/>
<path d="M-329.232 -13.7678L115.535 431C116.473 431.938 117.745 432.464 119.071 432.464L226.5 432.464L226.5 521L226.5 539.893C226.5 541.219 227.027 542.491 227.964 543.429L325.768 641.232" stroke="#F4F4F4" stroke-width="5"/>
<path d="M-236.232 -13.7678L85.4645 307.929C87.4171 309.882 87.4171 313.048 85.4645 315L61.5355 338.929C59.5829 340.882 59.5829 344.048 61.5355 346L117.035 401.5L139 401.5M418.768 641.232L348.5 570.964" stroke="#F4F4F4" stroke-width="5"/>
<path d="M-205.232 -13.7678L140.465 331.929C142.417 333.882 145.583 333.882 147.536 331.929L155.929 323.536C157.882 321.583 157.882 318.417 155.929 316.464L-31 129.535M449.768 641.232L306.5 497.964L119.071 497.964C117.745 497.964 116.473 497.438 115.536 496.5L86.0711 467.036C84.1185 465.083 80.9527 465.083 79 467.036L71.0356 475M160.5 351.964L160.5 362.982L160.5 374M190.5 352L190.5 363L190.5 374" stroke="#F4F4F4" stroke-width="5"/>
<path d="M-143.232 -13.7678L220.535 350C221.473 350.938 222 352.209 222 353.536L222 436.5L304.964 436.5C306.29 436.5 307.562 437.027 308.5 437.964L511.768 641.232" stroke="#F4F4F4" stroke-width="5"/>
<path d="M-112.232 -14L252.035 350.268C252.973 351.205 253.5 352.477 253.5 353.803L253.5 405L304.697 405C306.023 405 307.294 405.527 308.232 406.465L542.768 641" stroke="#F4F4F4" stroke-width="5"/>
<path d="M-81.2322 -13.7678L272.221 339.686C274.085 341.55 277.076 341.646 279.057 339.906L288.479 331.629C290.459 329.889 293.45 329.986 295.314 331.85L596.965 633.5M573.768 641.232L338 405.464" stroke="#F4F4F4" stroke-width="5"/>
<path d="M480.768 641.232L307 467.465H286" stroke="#F4F4F4" stroke-width="5"/>
<path d="M161.5 632L137.036 607.536C135.083 605.583 135.083 602.417 137.036 600.464L195.5 542V521" stroke="#F4F4F4" stroke-width="5"/>
<path d="M-360.232 -13.7678L115.536 462C116.473 462.938 117.745 463.465 119.071 463.465L139 463.465M294.768 641.232L226.5 572.964" stroke="#F4F4F4" stroke-width="5"/>
<path d="M-453.232 -13.7678L130 569.464C131.953 571.417 135.118 571.417 137.071 569.464L163.036 543.5C163.973 542.562 164.5 541.291 164.5 539.964L164.5 521M201.768 641.232L164.5 603.965" stroke="#F4F4F4" stroke-width="5"/>
<circle cx="160" cy="352" r="10" fill="#F4F4F4"/>
<circle cx="59" cy="312" r="10" fill="#F4F4F4"/>
<circle cx="28" cy="312" r="10" fill="#F4F4F4"/>
<circle cx="190.5" cy="352" r="10" fill="#F4F4F4"/>
<circle cx="274" cy="310" r="10" fill="#F4F4F4"/>
<circle cx="338" cy="407" r="10" fill="#F4F4F4"/>
<circle cx="317" cy="570" r="10" fill="#F4F4F4"/>
<circle cx="349" cy="570" r="10" fill="#F4F4F4"/>
<circle cx="224" cy="570" r="10" fill="#F4F4F4"/>
<circle cx="224" cy="601" r="10" fill="#F4F4F4"/>
<circle cx="163" cy="601" r="10" fill="#F4F4F4"/>
<circle cx="71" cy="475" r="10" fill="#F4F4F4"/>
<rect x="682" y="109.674" width="82.9777" height="82.9777" transform="rotate(-45 682 109.674)" fill="#F4F4F4"/>
<circle cx="689" cy="44" r="10" fill="#F4F4F4"/>
<circle cx="640" cy="88" r="10" fill="#F4F4F4"/>
<circle cx="772" cy="158" r="10" fill="#F4F4F4"/>
<circle cx="694" cy="203" r="10" fill="#F4F4F4"/>
<circle cx="712" cy="221" r="10" fill="#F4F4F4"/>
<circle cx="943" cy="174" r="10" fill="#F4F4F4"/>
<circle cx="640" cy="26" r="10" fill="#F4F4F4"/>
<path d="M695 203L716 182H765.5L1186.5 603" stroke="#F4F4F4" stroke-width="5"/>
</g>
<defs>
<clipPath id="clip0">
<rect width="1148" height="623" fill="white"/>
</clipPath>
</defs>
</svg>
